# xmcd CD database file
# Copyright (C) 1993-1998 Ti Kan
#
# Track frame offsets:
#	150
#	40420
#	58143
#	74523
#	90552
#	105374
#	122676
#	140858
#	160810
#	175193
#	195596
#
# Disc length: 2841 seconds
#
# Revision: 2
# Processed by: cddbd v1.4b41PL1 Copyright (c) Steve Scherf et al.
# Submitted via: CDmax 1.5
#
DISCID=9b0b170b
DTITLE=Various Artist - Hot Planet Energy Disc 1
DYEAR=1900
DGENRE=
TTITLE0=Planet Energy CD Rom  - Live Performances
TTITLE1=Astroplane - BKS 3:54
TTITLE2=Ou Eee Ou - D.F.S. 3:36
TTITLE3=That's The Way - Free Your Mind 3:32
TTITLE4=It's Time To Party Now - Free Your Mind 3:16
TTITLE5=Forever Young - TEMPERANCE 3:49
TTITLE6=First Time - PleasureBeat feat. J-Cock 4:00
TTITLE7=Feel It In The Air - Intonation feat. Joee 4:24
TTITLE8=I Need Your Love - Crewz Control 3:10
TTITLE9=In Your Arms - Emjay 4:30
TTITLE10=Give A Little Love - Capital Sound 3:51
EXTD=
EXTT0=
EXTT1=
EXTT2=
EXTT3=
EXTT4=
EXTT5=
EXTT6=
EXTT7=
EXTT8=
EXTT9=
EXTT10=
PLAYORDER=
